<?xml version="1.0" standalone="no"?>
<!DOCTYPE svg PUBLIC "-//W3C//DTD SVG 20010904//EN"
 "http://www.w3.org/TR/2001/REC-SVG-20010904/DTD/svg10.dtd">
<svg version="1.0" xmlns="http://www.w3.org/2000/svg"
 width="818.000000pt" height="818.000000pt" viewBox="0 0 818.000000 818.000000"
 preserveAspectRatio="xMidYMid meet">
<metadata>
Created by potrace 1.11, written by Peter Selinger 2001-2013
</metadata>
<g transform="translate(0.000000,818.000000) scale(0.100000,-0.100000)"
fill="#000000" stroke="none">
<path d="M2075 8172 c-2 -2 -2 -9 1 -15 3 -11 27 -155 40 -247 2 -19 11 -73
19 -120 8 -47 17 -101 19 -120 13 -91 16 -113 21 -120 2 -4 657 -7 1455 -7
798 0 1452 -2 1454 -4 5 -4 -32 -44 -240 -264 -72 -77 -149 -158 -169 -180
-21 -22 -81 -85 -134 -141 -143 -151 -373 -393 -400 -423 -13 -14 -97 -102
-185 -196 -89 -93 -201 -212 -251 -264 -49 -53 -122 -129 -161 -171 -40 -41
-89 -94 -110 -116 -22 -23 -104 -110 -184 -194 -183 -194 -286 -302 -341 -361
-24 -26 -105 -111 -179 -189 -74 -78 -155 -164 -180 -190 -216 -229 -303 -321
-335 -355 -21 -22 -74 -78 -119 -125 -76 -80 -312 -330 -459 -488 l-29 -30
1632 0 c897 0 1633 -2 1634 -4 3 -2 -454 -641 -481 -673 -5 -5 -45 -62 -91
-125 -45 -63 -130 -182 -190 -265 -60 -82 -191 -265 -292 -405 -101 -140 -233
-324 -294 -408 -61 -84 -131 -181 -156 -215 -96 -133 -178 -248 -520 -722
-194 -269 -405 -562 -468 -650 -64 -88 -129 -179 -146 -201 -17 -23 -38 -52
-46 -64 -8 -12 -30 -43 -48 -69 -36 -49 44 31 283 284 72 75 150 158 175 184
25 26 108 114 185 196 77 81 158 167 180 190 22 23 103 109 180 190 77 82 156
165 175 185 19 20 100 106 180 190 163 173 170 180 295 312 50 52 158 167 240
254 83 87 165 174 183 194 19 19 89 93 155 164 67 71 140 148 162 171 22 23
105 111 185 195 80 85 186 197 236 249 50 53 104 110 120 127 16 18 97 103
179 190 83 87 161 170 175 184 168 178 297 314 337 356 80 85 308 326 353 374
23 25 74 79 113 121 40 41 82 86 94 100 l22 24 -1628 0 c-1541 0 -1628 1
-1617 17 7 10 48 55 92 101 158 166 402 423 425 449 22 23 203 214 391 413 36
38 85 90 109 115 23 25 108 115 189 200 81 85 162 171 180 190 32 35 258 273
421 445 47 49 119 126 161 170 42 44 93 98 114 121 109 115 307 324 344 364
23 25 110 117 194 205 83 87 162 171 176 186 14 15 49 53 79 86 59 63 165 175
392 414 81 85 158 168 172 184 l25 30 -2245 0 c-1235 0 -2246 -2 -2248 -3z"/>
</g>
</svg>
